<?xml version="1.0" encoding="UTF-8" standalone="no"?>
<!-- Created with Inkscape (http://www.inkscape.org/) -->

<svg
   width="190.75732mm"
   height="190.76997mm"
   id="svg2"
   version="1.1"
   xmlns="http://www.w3.org/2000/svg"
   xmlns:svg="http://www.w3.org/2000/svg"
   xmlns:rdf="http://www.w3.org/1999/02/22-rdf-syntax-ns#"
   xmlns:cc="http://creativecommons.org/ns#"
   xmlns:dc="http://purl.org/dc/elements/1.1/">
  <defs
     id="defs4" />
  <metadata
     id="metadata7">
    <rdf:RDF>
      <cc:Work
         rdf:about="">
        <dc:format>image/svg+xml</dc:format>
        <dc:type
           rdf:resource="http://purl.org/dc/dcmitype/StillImage" />
      </cc:Work>
    </rdf:RDF>
  </metadata>
  <g
     id="layer1"
     transform="translate(-33.476927,-134.05246)">
    <path
       style="fill:#ffffff;fill-rule:evenodd;stroke:#000000;stroke-width:1.18218px;stroke-linecap:butt;stroke-linejoin:miter;stroke-opacity:1"
       d="M 389.97427,134.66012 C 195.4437,136.70386 36.968497,293.57778 34.068017,489.22261 v 11.3125 C 37.296767,694.87619 194.25273,851.56013 388.59927,854.44136 587.34956,857.38788 750.8715,698.66041 753.81802,499.91011 756.76454,301.15981 598.03707,137.63789 399.28677,134.69137 c -3.10547,-0.046 -6.22471,-0.0637 -9.3125,-0.0312 z m -30.1875,145.06249 h 68.34375 c 2.09772,0 3.78125,1.68354 3.78125,3.78125 v 173.09375 h 173.09375 c 2.09772,0 3.78125,1.68353 3.78125,3.78125 v 68.34375 c 0,2.09772 -1.68353,3.8125 -3.78125,3.8125 H 431.91177 v 173.09375 c 0,2.09772 -1.68353,3.78125 -3.78125,3.78125 h -68.34375 c -2.09772,0 -3.78125,-1.68353 -3.78125,-3.78125 V 532.53511 H 182.91177 c -2.09772,0 -3.78125,-1.71478 -3.78125,-3.8125 v -68.34375 c 0,-2.09772 1.68353,-3.78125 3.78125,-3.78125 H 356.00552 V 283.50386 c 0,-2.09771 1.68353,-3.78125 3.78125,-3.78125 z"
       id="path2996" />
  </g>
</svg>
