<?xml version="1.0" encoding="UTF-8" standalone="no"?>
<svg
   version="1.1"
   id="svg27183"
   height="182.82883"
   width="176.33023"
   xmlns="http://www.w3.org/2000/svg"
   xmlns:svg="http://www.w3.org/2000/svg"
   xmlns:rdf="http://www.w3.org/1999/02/22-rdf-syntax-ns#"
   xmlns:cc="http://creativecommons.org/ns#"
   xmlns:dc="http://purl.org/dc/elements/1.1/">
  <defs
     id="defs27185" />
  <metadata
     id="metadata27188">
    <rdf:RDF>
      <cc:Work
         rdf:about="">
        <dc:format>image/svg+xml</dc:format>
        <dc:type
           rdf:resource="http://purl.org/dc/dcmitype/StillImage" />
      </cc:Work>
    </rdf:RDF>
  </metadata>
  <g
     id="g1572"
     transform="translate(-116.77264,-113.46289)"
     style="fill:#ffffff;stroke:none;stroke-opacity:1">
    <path
       id="path3919"
       style="fill:#ffffff;fill-opacity:1;stroke:none;stroke-opacity:1"
       d="m 279.81445,113.46289 -9.4707,6.78711 -9.4707,6.78711 -2.35743,6.75195 -2.35546,6.75196 -16.09571,16.09375 -16.0957,16.09375 4.73437,4.76171 c 2.6039,2.61925 5.05211,4.76172 5.44141,4.76172 0.3893,0 7.60988,-7.10932 16.04492,-15.79883 l 15.33594,-15.79882 7.27734,-2.37891 7.27539,-2.37891 6.40626,-9.31836 c 3.52304,-5.12553 6.50013,-9.60199 6.61523,-9.94726 0.1151,-0.34527 -2.82611,-3.44965 -6.53711,-6.89844 z m -136.8164,7.98242 c -0.76815,0.01 -1.06341,0.28505 -1.51172,0.72852 -1.1977,1.18449 -1.13157,1.26734 9.04687,11.50976 8.56674,8.6206 10.25391,10.61253 10.25391,12.10938 0,1.48624 -1.48828,3.28202 -8.73242,10.53906 -6.5857,6.59736 -9.11008,8.74805 -10.26758,8.74805 -1.1664,0 -3.98712,-2.45015 -11.75586,-10.20899 -10.23184,-10.21848 -11.56573,-11.11671 -12.57813,-8.47851 -0.20394,0.53198 0.94248,6.02928 2.54688,12.2168 l 2.91797,11.25 5.90039,5.83007 5.90039,5.83203 11.1543,2.61914 11.15429,2.61915 34.88868,35.00585 34.88867,35.00586 2.59765,11.15821 2.59766,11.15625 6.14062,5.66211 6.14063,5.66015 10.53906,2.91992 c 5.7966,1.60591 10.84144,2.9399 11.21094,2.9629 0.3693,0.023 1.18254,-0.52336 1.80664,-1.2129 1.122,-1.23968 1.02047,-1.36672 -9.10547,-11.50585 -8.65364,-8.66497 -10.24023,-10.53536 -10.24023,-12.07813 0,-1.52683 1.37924,-3.20738 8.42578,-10.26758 11.30734,-11.32913 9.70972,-11.44684 22.88086,1.70703 10.12724,10.11415 10.16489,10.14269 11.30859,8.87891 1.1263,-1.24461 1.09402,-1.47342 -1.80078,-12.44727 l -2.94922,-11.17968 -5.85351,-5.94532 -5.85157,-5.94531 -11.08789,-2.58789 -11.08593,-2.58984 -34.98829,-34.87891 -34.98632,-34.88086 -2.01758,-8.41211 c -3.6986,-15.4284 -3.00241,-13.99131 -9.78321,-20.24804 l -6.05078,-5.58204 -10.98046,-3.06835 c -5.44105,-1.52013 -8.18804,-2.28318 -9.72461,-2.51954 -0.38419,-0.0591 -0.69318,-0.0854 -0.94922,-0.082 z m 60.41406,40.04688 -2.92188,2.85351 -2.92382,2.85352 21.01171,21.01758 21.00977,21.01758 3.07227,-3.10352 3.07226,-3.10547 -21.16015,-20.76562 z m -37.73633,43.16992 -22.0957,22.06836 c -24.13578,24.10582 -25.0927,25.31801 -26.4668,33.47851 -0.9612,5.70807 0.0778,9.97308 3.55078,14.59375 2.9659,3.94551 8.95179,9.73393 12.45899,12.04883 5.63694,3.72057 13.36459,4.03466 20.30273,0.82422 3.5896,-1.66094 6.21672,-4.0702 26.3711,-24.17773 l 22.38476,-22.33203 -3.64844,-3.68555 -3.64843,-3.6875 -9.3086,9.18945 c -8.47584,8.36576 -9.50623,9.18945 -11.48633,9.18946 -1.61914,0 -2.49901,-0.41217 -3.44531,-1.61524 -2.6668,-3.3902 -2.01736,-4.54124 8.61328,-15.26367 l 8.52539,-8.59961 -3.83789,-3.7793 -3.83984,-3.77929 -9.63672,9.1582 c -10.39054,9.87543 -11.54614,10.50416 -14.39648,7.82617 -0.9599,-0.90174 -1.41993,-2.02966 -1.41993,-3.48242 0,-1.94825 0.85723,-3.01126 9.19727,-11.41406 l 9.19727,-9.26758 -3.68555,-3.64649 z" />
  </g>
</svg>
