<?xml version="1.0" encoding="UTF-8" standalone="no"?>
<!-- Created with Inkscape (http://www.inkscape.org/) -->

<svg
   width="225.95874mm"
   height="220.21399mm"
   viewBox="0 0 225.95874 220.21399"
   version="1.1"
   id="svg20843"
   xml:space="preserve"
   xmlns="http://www.w3.org/2000/svg"
   xmlns:svg="http://www.w3.org/2000/svg"><defs
     id="defs20840" /><g
     id="layer1"
     transform="translate(19.820018,-139.57944)"><path
       style="fill:#ffffff;stroke-width:0.264583"
       d="m 33.243562,336.57626 23.20208,-23.21719 0.29061,-2.17455 c 0.84342,-6.31105 4.51448,-13.97044 8.96006,-18.69453 1.67183,-1.77657 4.79989,-4.12741 6.89093,-5.17876 2.52088,-1.26747 4.2469,-1.78441 7.14416,-2.13964 l 2.27562,-0.27901 2.71198,-2.69536 c 1.49159,-1.48245 2.70828,-2.81655 2.70375,-2.96467 -0.005,-0.14812 -1.54709,-2.71009 -3.42793,-5.69327 l -3.41971,-5.42396 40.939958,-40.9515 40.93996,-40.9515 5.61368,-1.38918 5.61367,-1.38917 9.79097,-13.98841 c 5.38504,-7.69362 9.79096,-14.11829 9.79096,-14.27705 0,-0.31124 -7.9415,-8.36464 -8.24841,-8.36464 -0.17257,0 -27.60334,19.11638 -28.08893,19.57505 -0.12195,0.11518 -0.85759,2.74429 -1.63477,5.84246 l -1.41304,5.63305 -40.8749,40.8749 -40.874898,40.8749 -5.57998,-3.48352 c -3.06899,-1.91593 -5.67067,-3.48351 -5.78152,-3.48351 -0.11085,0 -1.40697,1.22039 -2.88026,2.71198 l -2.67873,2.71198 -0.17638,1.91355 c -0.47984,5.20575 -2.73621,9.76284 -6.89114,13.91777 -4.98343,4.98344 -12.82655,8.81441 -19.61089,9.57895 l -1.61823,0.18235 -23.3661203,23.36725 -23.3661297,23.36725 0.4307,2.62383 c 0.53555,3.26259 1.22291,5.30622 2.86736,8.52509 5.03745,9.86041 16.36739971,17.95661 25.5045397,18.22513 l 1.0589003,0.0311 z m 151.672258,14.77865 1.44552,-2.88227 -14.82462,-8.42866 -14.82462,-8.42866 0.15285,-2.77812 c 0.68732,-12.49215 6.23697,-22.26734 16.14928,-28.44541 1.9705,-1.22816 2.06754,-1.25875 2.74586,-0.86555 7.08183,4.10508 28.66691,16.34638 28.82357,16.34638 0.11708,0 0.51485,-0.61679 0.88397,-1.37063 l 0.67109,-1.37063 -0.88881,-2.39066 c -3.1672,-8.51897 -7.3523,-15.18853 -12.75282,-20.32353 -3.31541,-3.15241 -6.53234,-5.3647 -10.67844,-7.34359 -6.75517,-3.22417 -12.85696,-4.60895 -22.11333,-5.01853 l -4.58712,-0.20298 -2.43624,-1.23367 c -5.69607,-2.88438 -12.73495,-8.90945 -29.3547,-25.12668 l -8.95059,-8.73382 -11.27974,11.27974 -11.279728,11.27974 9.522358,9.60105 c 13.11889,13.22731 20.03132,20.79551 24.76267,27.11189 4.35594,5.81518 5.23229,7.75131 5.24749,11.59334 0.0225,5.69931 0.81852,12.06969 2.03316,16.27187 4.74694,16.42261 19.23238,23.75061 48.03911,24.30243 l 2.04831,0.0392 z m -98.629228,-114.39427 11.1564,-11.17865 -5.82915,-5.95312 c -15.36791,-15.69474 -23.29603,-24.62541 -27.77695,-31.2895 -2.83871,-4.22177 -2.94222,-4.56595 -3.16208,-10.51467 -0.46011,-12.44866 -2.90669,-20.03719 -8.36336,-25.9406 -7.20038,-7.78988 -19.29952,-11.66633 -38.47015,-12.32549 l -5.2108403,-0.17917 -1.34557,2.68137 c -0.74007,1.47475 -1.34558,2.78639 -1.34558,2.91476 0,0.12838 6.6246703,4.01779 14.7214903,8.64314 l 14.7215,8.40974 -0.14608,3.06948 c -0.57678,12.11956 -6.29387,22.00173 -16.38018,28.31367 l -1.76765,1.10619 -13.9750603,-7.97929 c -7.68628,-4.38861 -14.3593497,-8.21215 -14.8290397,-8.49676 l -0.85398,-0.51747 -0.71425,1.45633 -0.71425,1.45633 1.00546,2.72878 c 6.6009297,17.9147 18.8193597,28.46048 36.52683,31.52647 3.2337,0.55991 4.61182,0.69773 9.39271,0.93934 3.68162,0.18605 4.25675,0.28131 5.62349,0.93141 5.6563,2.69042 15.25381,10.74579 28.77235,24.14915 4.00182,3.96772 7.39563,7.21701 7.54179,7.22062 0.14616,0.004 5.28613,-5.02381 11.42215,-11.17206 z"
       id="path22008" /></g></svg>
