<?xml version="1.0" encoding="UTF-8" standalone="no"?>
<!-- Created with Inkscape (http://www.inkscape.org/) -->

<svg
   width="37.965271mm"
   height="33.960049mm"
   viewBox="0 0 37.965271 33.960049"
   version="1.1"
   id="svg5"
   inkscape:version="1.1.2 (0a00cf5339, 2022-02-04)"
   sodipodi:docname="gears.svg"
   xmlns:inkscape="http://www.inkscape.org/namespaces/inkscape"
   xmlns:sodipodi="http://sodipodi.sourceforge.net/DTD/sodipodi-0.dtd"
   xmlns="http://www.w3.org/2000/svg"
   xmlns:svg="http://www.w3.org/2000/svg">
  <sodipodi:namedview
     id="namedview7"
     pagecolor="#ffffff"
     bordercolor="#666666"
     borderopacity="1.0"
     inkscape:pageshadow="2"
     inkscape:pageopacity="0.0"
     inkscape:pagecheckerboard="0"
     inkscape:document-units="mm"
     showgrid="false"
     inkscape:zoom="2.6507378"
     inkscape:cx="93.747484"
     inkscape:cy="86.768295"
     inkscape:window-width="1368"
     inkscape:window-height="713"
     inkscape:window-x="0"
     inkscape:window-y="31"
     inkscape:window-maximized="1"
     inkscape:current-layer="layer1" />
  <defs
     id="defs2" />
  <g
     inkscape:label="Layer 1"
     inkscape:groupmode="layer"
     id="layer1"
     transform="translate(-71.717938,-26.549191)">
    <path
       id="path85-3"
       style="fill:#ff6600;stroke-width:0.0846667"
       d="m 92.935358,26.712236 c -5.55e-4,0.0033 -0.0015,0.01 -0.0021,0.01292 0.0035,-0.0015 0.0068,-0.005 0.01033,-0.01137 -0.0026,-6.09e-4 -0.0056,-9.26e-4 -0.0083,-0.0016 z m 1.152901,3.367753 c 0.0026,0.0015 0.0051,0.0033 0.0062,0.0041 -0.0022,-0.0014 -0.0042,-0.0028 -0.0062,-0.0041 z m -0.83044,0.345199 c -1.263379,-0.0318 -2.520777,0.609993 -3.179651,1.840714 l -0.249597,0.466122 -1.396814,0.04909 c -1.844962,0.06529 -2.354438,0.243972 -3.250447,1.139982 -0.78534,0.78534 -1.503009,2.003716 -2.616895,4.441073 -0.3937,0.861484 -0.870201,1.871258 -1.058333,2.243791 -0.403169,0.798341 -1.20251,2.665301 -1.20251,2.808614 0,0.106746 0.306636,0.787221 1.118793,2.483052 0.278768,0.582084 0.770864,1.642214 1.093475,2.355929 0.322612,0.713715 0.74172,1.60894 0.931725,1.989543 0.840121,1.682859 1.889973,2.891351 2.946591,3.39204 0.536966,0.25445 0.600944,0.264332 1.88929,0.291973 l 1.333768,0.02842 v 0.743106 c 0,0.623615 0.02793,0.779145 0.175184,0.966348 l 0.175699,0.223242 h 2.726449 c 2.330831,0 2.754214,-0.0191 2.915068,-0.131773 0.188002,-0.131688 0.188102,-0.134456 0.188102,-2.93574 0,-2.490054 -0.0156,-2.820961 -0.140043,-2.958475 -0.130392,-0.144006 -0.335796,-0.155028 -2.953308,-0.155028 -2.508934,0 -2.825374,0.01509 -2.92902,0.139526 -0.07265,0.08723 -0.131661,0.444601 -0.158131,0.952913 l -0.04237,0.812871 -0.826306,0.02429 c -1.1689,0.0343 -1.437147,-0.05667 -2.068091,-0.69918 -0.441383,-0.449477 -0.623025,-0.737521 -1.156002,-1.833997 -0.570468,-1.173607 -2.075447,-4.25522 -2.154907,-4.412651 -0.01762,-0.03493 1.380972,-0.06356 3.107821,-0.06356 h 3.139859 v 1.231449 c 0,1.194646 0.0061,1.23811 0.20774,1.439706 0.251587,0.251585 0.329881,0.252927 0.769979,0.01344 1.253832,-0.682249 6.007949,-3.60754 6.108154,-3.758426 0.08859,-0.133395 0.09904,-0.229043 0.03772,-0.343649 -0.04674,-0.08734 -1.492599,-1.004215 -3.213241,-2.037601 -3.300581,-1.98227 -3.509056,-2.075654 -3.778581,-1.690853 -0.104851,0.149701 -0.131775,0.444337 -0.131775,1.439705 v 1.251087 h -3.132625 c -1.722971,0 -3.132467,-0.02863 -3.13211,-0.06356 5.3e-4,-0.03493 0.101211,-0.234867 0.223245,-0.444417 0.121828,-0.20955 0.652021,-1.307576 1.177706,-2.440161 1.065392,-2.295504 1.351065,-2.811644 1.890323,-3.416329 0.558345,-0.626089 0.670273,-0.663008 2.021065,-0.663008 h 1.172538 l 0.189136,0.389123 c 0.28655,0.589806 0.978797,1.271377 1.58595,1.561145 2.152761,1.027398 4.630021,-0.260339 5.044653,-2.622062 0.185695,-1.057707 -0.194806,-2.21587 -0.988054,-3.009119 -0.679873,-0.679873 -1.546805,-1.016935 -2.411222,-1.038696 z m 13.212621,5.70146 c 0.0232,0.01538 0.0457,0.03245 0.0708,0.04444 0.0234,0.01117 -0.0397,-0.03759 -0.0651,-0.04289 -0.002,-3.71e-4 -0.004,-0.0011 -0.006,-0.0016 z m 3.01739,1.048515 c -0.0214,0.0041 -0.0427,0.0081 -0.0641,0.0124 0.008,0.04394 0.0151,0.08784 0.0227,0.131775 0.0276,0.0031 0.0602,0.0069 0.0915,0.01033 -0.0229,-0.06581 -0.0231,-0.08151 -0.0501,-0.154513 z m -0.19999,0.07906 c 0.01,-0.0067 -0.0243,0.0089 -0.0305,0.01912 -3.2e-4,5.29e-4 -7.1e-4,0.001 -0.001,0.0016 0.0104,-0.007 0.0212,-0.01357 0.0315,-0.02067 z m -13.545418,7.644495 c -0.0011,6.08e-4 -0.002,0.0015 -0.0031,0.0021 4.5e-4,0.0046 -0.0041,0.01341 -0.01085,0.02429 h 0.02119 c -0.0024,-0.0089 -0.0036,-0.01534 -0.0072,-0.02636 z m -20.604427,5.937626 c 0.01799,0.0054 0.03615,0.0098 0.05426,0.01447 0.0026,-0.004 0.0051,-0.0068 0.0078,-0.01085 -0.02066,-0.0011 -0.04134,-0.0024 -0.06201,-0.0036 z" />
    <path
       id="path85"
       style="fill:#666666;stroke-width:0.32"
       transform="matrix(0.26458333,0,0,0.26458333,71.717938,26.549191)"
       d="M 78.044922,0 C 73.810579,4.4740116e-4 69.579507,0.19843031 67.011719,0.59375 48.527119,3.4395188 34.781129,9.998057 24.365234,20.943359 14.984005,30.801426 8.9711511,43.731535 7.5078125,57.195312 7.1422188,60.558831 7.0500974,68.280376 7.3652344,69.101562 c 0.1725694,0.449708 1.5986329,0.50586 12.7910156,0.50586 h 12.599609 l -0.294921,-0.773438 c -0.16173,-0.42537 -0.733567,-1.645326 -1.271485,-2.710937 -0.537914,-1.065608 -0.978515,-2.21182 -0.978515,-2.546875 0,-0.335048 0.499774,-1.706854 1.111328,-3.048828 l 1.113281,-2.439453 H 25.242188 18.050781 V 57.28125 c 0,-1.494644 1.341523,-7.013179 2.449219,-10.074219 4.209774,-11.633386 12.299715,-21.356209 23.091797,-27.753906 5.206182,-3.086302 11.461804,-5.402248 17.978515,-6.65625 4.16233,-0.800935 11.868015,-0.960705 16.535157,-0.34375 17.0435,2.252999 32.183821,12.527854 40.265621,27.328125 l 1.59961,2.931641 11.75977,0.0059 c 7.44877,0.0048 11.75976,-0.10664 11.75976,-0.304688 0,-0.171942 -0.35942,-1.268183 -0.79882,-2.435546 -1.43501,-3.812478 -4.6361,-9.577938 -7.25391,-13.064454 C 124.79866,12.743102 108.69187,3.5969106 89.091797,0.59179688 86.516956,0.19702333 82.279265,-4.4740116e-4 78.044922,0 Z m 14.888672,23.974609 c -4.86e-4,0.01888 -0.0027,0.03781 -0.002,0.05664 8.01e-4,0.01747 0.0024,-0.03736 0.0039,-0.05273 -9.81e-4,-10e-4 -8.78e-4,-0.0029 -0.002,-0.0039 z m 0.169922,0.1875 c 0.01408,0.02443 0.02747,0.05033 0.04492,0.07227 0.0057,0.007 0.02331,0.01803 0.0293,0.01953 l 0.002,-0.002 c -0.02243,-0.032 -0.04953,-0.06112 -0.07617,-0.08984 z m 0.46875,7.638672 c 0.01482,0.01256 0.02697,0.02371 0.04297,0.03711 -0.0026,-0.0079 -0.0051,-0.01724 -0.0078,-0.02539 -0.01173,-0.0039 -0.02342,-0.0078 -0.03516,-0.01172 z m -7.863282,0.789063 c -5.23e-4,0.005 3.16e-4,0.01059 0,0.01563 8.79e-4,-0.0052 0.001,-0.01036 0.002,-0.01563 z m -38.564453,16.875 c 0.01206,0.01539 0.02774,0.03647 0.03906,0.05078 0.0077,-0.0052 0.01572,-0.01042 0.02344,-0.01563 -0.02109,-0.01097 -0.04178,-0.0228 -0.0625,-0.03516 z m 20.884766,0.466797 c 0.02041,0.01241 0.106436,0.05563 0.142578,0.06641 0.0079,0.0024 0.01553,0.0054 0.02344,0.0078 -0.05337,-0.02488 -0.10616,-0.05074 -0.160156,-0.07422 -0.01154,-0.005 -0.01158,-0.0041 -0.0059,0 z m 0.828125,0.103515 c -0.02467,0.0092 -0.04949,0.01837 -0.07422,0.02734 0.02213,-0.0043 0.04324,-0.0086 0.06641,-0.01367 0.0022,-0.0046 0.0056,-0.0092 0.0078,-0.01367 z m 44.177738,8.052735 c -12.13386,0 -21.990369,0.1154 -21.902348,0.257812 0.08805,0.142466 1.400055,1.017023 2.916016,1.943359 4.555196,2.7836 4.469214,3.669593 -0.68164,6.953126 l -3.458985,2.205078 17.343747,0.08203 17.3418,0.08398 -0.17578,1.03711 c -0.98805,5.807954 -1.99705,9.509783 -3.73828,13.722656 C 115.62412,96.603766 105.18171,107.10073 92.730469,112.46875 86.626222,115.10044 80.145026,116.56414 73.25,116.86719 52.359591,117.78534 32.190815,106.0557 23.080078,87.689453 l -1.349609,-2.720703 -10.746094,-0.002 c -5.910663,-1.8e-4 -10.8346346,0.08854 -10.94140625,0.195312 -0.34004787,0.340048 1.36694605,4.631997 3.49609375,8.791016 3.457954,6.754662 9.3795095,13.896912 15.6308595,18.851562 10.840078,8.59154 24.068226,13.81563 38.880859,15.35742 3.885086,0.40438 14.914775,0.12579 18.878907,-0.47656 8.049778,-1.22317 15.1787,-3.42148 22.341796,-6.88867 4.612936,-2.2331 8.514186,-4.5956 12.058596,-7.30469 2.72942,-2.08624 7.89419,-7.14697 10.16992,-9.96485 7.46646,-9.244857 12.38235,-21.02201 13.65234,-32.707025 0.36473,-3.356738 0.45042,-10.843583 0.13672,-12.013671 l -0.19336,-0.71875 z m -78.197269,5.654297 c 6.9e-5,0.0054 0.0019,0.0099 0.002,0.01562 0.0107,0.03778 0.02174,0.08404 0.03125,0.117188 -0.0111,-0.05005 -0.02243,-0.09128 -0.0332,-0.132812 z m -0.01953,0.345703 c -0.01494,0.07875 -0.03324,0.157052 -0.04492,0.236328 -0.0068,0.04596 0.02693,-0.08873 0.0332,-0.134766 0.0053,-0.03855 0.0088,-0.07177 0.01172,-0.101562 z m 0.128907,0.666015 c -0.0074,0.04032 -0.01555,0.08088 -0.02344,0.121094 h 0.002 v -0.002 c 0.0081,-0.03878 0.01685,-0.08444 0.02148,-0.119141 z m -0.777344,3 c 6.12e-4,0.0013 0.0013,0.0026 0.002,0.0039 0.0833,0.03339 0.173876,0.07065 0.189453,0.07617 -0.0049,-0.0024 -0.144295,-0.06044 -0.191406,-0.08008 z m 26.8125,26.984375 c -0.05112,0.06692 -0.07211,0.103377 -0.121094,0.167969 0.0866,-0.06452 0.157207,-0.117449 0.216797,-0.162109 -0.02873,-0.0034 -0.06738,-0.0022 -0.0957,-0.0059 z m 19.402344,14.021489 c -0.03527,0.0118 -0.07345,0.0237 -0.107422,0.0352 0.117884,-0.011 0.235793,-0.0222 0.353515,-0.0352 -0.08201,4e-5 -0.164079,-5e-5 -0.246093,0 z m 9.052734,1.84375 c -0.05939,0.0229 -0.11857,0.0468 -0.177734,0.0703 0.08026,-0.0112 0.237898,-0.0169 0.30664,-0.0293 -0.04884,-0.0144 -0.07652,-0.0263 -0.128906,-0.041 z" />
  </g>
</svg>
