<?xml version="1.0" encoding="UTF-8" standalone="no"?>
<!-- Created with Inkscape (http://www.inkscape.org/) -->

<svg
   width="51.964561mm"
   height="50.580639mm"
   viewBox="0 0 51.964561 50.580639"
   version="1.1"
   id="svg6807"
   xmlns="http://www.w3.org/2000/svg"
   xmlns:svg="http://www.w3.org/2000/svg">
  <defs
     id="defs6804" />
  <g
     id="layer1"
     transform="translate(-85.514821,-25.810269)">
    <g
       id="g6964"
       transform="translate(6.9178939,-96.727567)">
      <path
         style="fill:#cff1c9;stroke-width:0.264583"
         d="m 100.07208,172.83108 c -18.184596,-3.24231 -27.332227,-23.57102 -17.397705,-38.66279 7.058418,-10.72262 21.566815,-14.68948 33.320775,-9.11053 21.59409,10.24953 18.43581,41.06217 -4.84838,47.30148 -2.30949,0.61886 -8.71863,0.89192 -11.07469,0.47184 z m 7.05952,-19.03942 v -3.43958 h 3.43959 3.43958 v -2.50564 -2.50564 l -3.37344,-0.074 -3.37343,-0.074 -0.0741,-3.37344 -0.074,-3.37343 h -2.49774 -2.49773 l -0.074,3.37343 -0.074,3.37344 -3.373438,0.074 -3.373437,0.074 v 2.49773 2.49774 l 3.373437,0.074 3.373438,0.074 0.074,3.37343 0.074,3.37344 h 2.50564 2.50563 z"
         id="path6978" />
      <path
         style="fill:#c2eebb;stroke-width:0.264583"
         d="m 100.9139,172.93248 c -21.137015,-3.36525 -29.680324,-28.13221 -14.784057,-42.85882 13.668073,-13.5124 37.193417,-8.01567 43.192307,10.09196 4.5376,13.69671 -3.80083,28.41557 -18.2218,32.16482 -2.21334,0.57544 -8.14981,0.92629 -10.18645,0.60204 z m 6.27594,-19.07468 0.0741,-3.37343 3.37343,-0.074 3.37344,-0.074 v -2.63793 -2.63793 h -3.43958 -3.43959 v -3.30729 -3.30729 h -2.64583 -2.64583 v 3.30729 3.30729 h -3.307294 -3.307291 v 2.64583 2.64584 h 3.307291 3.307294 v 3.43958 3.43958 h 2.63793 2.63793 z"
         id="path6976" />
      <path
         style="fill:#b5eaac;stroke-width:0.264583"
         d="m 99.919044,172.70525 c -15.440476,-2.92487 -24.707683,-17.96109 -20.03445,-32.50627 4.694024,-14.6099 21.786476,-21.79225 35.938976,-15.10178 16.35587,7.73209 19.76574,28.51075 6.71073,40.89304 -5.88505,5.5818 -14.73129,8.20846 -22.615256,6.71501 z m 7.270796,-18.84745 0.0741,-3.37343 3.37343,-0.074 3.37344,-0.074 v -2.63793 -2.63793 h -3.43958 -3.43959 v -3.30729 -3.30729 h -2.64583 -2.64583 v 3.30729 3.30729 h -3.307294 -3.307291 v 2.64583 2.64584 h 3.307291 3.307294 v 3.43958 3.43958 h 2.63793 2.63793 z"
         id="path6974" />
      <path
         style="fill:#94e286;stroke-width:0.264583"
         d="m 100.20515,172.72807 c -20.386029,-3.61118 -28.552783,-27.5323 -14.401253,-42.18248 12.932632,-13.38833 35.853713,-9.16066 42.832553,7.90024 2.68692,6.5686 2.36581,14.19819 -0.86859,20.63749 -4.91281,9.7808 -16.63007,15.58136 -27.56271,13.64475 z m 7.19104,-18.80412 v -3.30729 h 3.30729 3.30729 v -2.77813 -2.77812 h -3.29938 -3.29939 l -0.074,-3.37344 -0.074,-3.37344 h -2.64584 -2.64583 l -0.074,3.36559 -0.074,3.3656 -3.365597,0.074 -3.36559,0.074 v 2.64583 2.64584 l 3.373437,0.074 3.37344,0.074 v 3.29939 3.29938 h 2.77812 2.77813 z"
         id="path6972" />
      <path
         style="fill:#87de78;stroke-width:0.264583"
         d="m 101.11225,172.84243 c -20.450509,-2.88511 -29.580294,-26.94454 -15.833358,-41.72514 13.804336,-14.84232 38.374308,-9.37671 44.243868,9.84208 1.02063,3.34188 1.09809,9.94484 0.15486,13.20139 -3.60227,12.437 -15.8859,20.47046 -28.56537,18.68167 z m 6.22564,-18.84449 0.074,-3.36559 3.36559,-0.074 3.36559,-0.074 v -2.64584 -2.64583 l -3.36559,-0.074 -3.36559,-0.074 -0.074,-3.3656 -0.074,-3.36559 h -2.64584 -2.64583 l -0.074,3.36559 -0.074,3.3656 -3.365597,0.074 -3.36559,0.074 v 2.64583 2.64584 l 3.373437,0.074 3.37344,0.074 v 3.25529 c 0,3.90246 -0.21151,3.64325 2.89731,3.55086 l 2.52665,-0.0751 z"
         id="path6970" />
      <path
         style="fill:#68d655;stroke-width:0.264583"
         d="m 102.5014,172.95292 c -14.511979,-1.9247 -23.519956,-11.54333 -23.519956,-25.11439 0,-22.6621 27.775776,-33.7644 44.055036,-17.6093 14.19702,14.08876 6.83352,38.0074 -12.99446,42.20952 -1.83532,0.38896 -6.22692,0.68841 -7.54062,0.51417 z m 4.83649,-18.95498 0.074,-3.36559 3.36559,-0.074 3.36559,-0.074 0.0754,-2.71198 0.0754,-2.71198 h -3.44884 -3.44884 v -3.43958 -3.43959 h -2.77813 -2.77812 v 3.43959 3.43958 h -3.439585 -3.439584 v 2.77812 2.77813 h 3.439584 3.439585 v 3.44884 3.44884 l 2.71198,-0.0754 2.71198,-0.0754 z"
         id="path6968" />
      <path
         style="fill:#44cd2c;stroke-width:0.264583"
         d="m 99.458688,172.44699 c -19.875973,-3.98663 -27.481026,-27.92778 -13.367899,-42.08293 16.147431,-16.1955 44.145751,-5.11276 44.145751,17.47447 0,15.95325 -14.82662,27.80788 -30.777852,24.60846 z m 7.937502,-18.39075 v -3.43958 h 3.43958 3.43958 v -2.77813 -2.77812 h -3.43958 -3.43958 v -3.43958 -3.43959 h -2.77813 -2.77812 v 3.43959 3.43958 h -3.439585 -3.439584 v 2.77812 2.77813 h 3.439584 3.439585 v 3.43958 3.43958 h 2.77812 2.77813 z"
         id="path6966" />
    </g>
  </g>
</svg>
